<svg xmlns="http://www.w3.org/2000/svg" width="48" height="48" viewBox="0 0 48 48" id="log">
  <g display="none">
    <rect width="48" height="48" fill="#fff" color="#000" overflow="visible" style="isolation:auto;mix-blend-mode:normal"></rect>
    <rect width="48" height="48" x="-46.987" fill="#fff" color="#000" overflow="visible" style="isolation:auto;mix-blend-mode:normal"></rect>
    <rect width="48" height="48" x="-102.987" fill="#fff" color="#000" overflow="visible" style="isolation:auto;mix-blend-mode:normal"></rect>
    <rect width="48" height="48" y="57.592" fill="#fff" color="#000" overflow="visible" style="isolation:auto;mix-blend-mode:normal"></rect>
    <rect width="48" height="48" x="-46.987" y="57.592" fill="#fff" color="#000" overflow="visible" style="isolation:auto;mix-blend-mode:normal"></rect>
    <rect width="48" height="48" x="-102.987" y="57.592" fill="#fff" color="#000" overflow="visible" style="isolation:auto;mix-blend-mode:normal"></rect>
    <rect width="48" height="48" y="117.592" fill="#fff" color="#000" overflow="visible" style="isolation:auto;mix-blend-mode:normal"></rect>
    <rect width="48" height="48" x="-46.987" y="117.592" fill="#fff" color="#000" overflow="visible" style="isolation:auto;mix-blend-mode:normal"></rect>
    <rect width="48" height="48" x="-102.987" y="117.592" fill="#fff" color="#000" overflow="visible" style="isolation:auto;mix-blend-mode:normal"></rect>
    <rect width="48" height="48" y="173.592" fill="#fff" color="#000" overflow="visible" style="isolation:auto;mix-blend-mode:normal"></rect>
    <rect width="48" height="48" x="-46.987" y="173.592" fill="#fff" color="#000" overflow="visible" style="isolation:auto;mix-blend-mode:normal"></rect>
    <rect width="48" height="48" x="-102.987" y="173.592" fill="#fff" color="#000" overflow="visible" style="isolation:auto;mix-blend-mode:normal"></rect>
    <rect width="48" height="48" y="231.592" fill="#fff" color="#000" overflow="visible" style="isolation:auto;mix-blend-mode:normal"></rect>
    <rect width="48" height="48" x="-46.987" y="231.592" fill="#fff" color="#000" overflow="visible" style="isolation:auto;mix-blend-mode:normal"></rect>
    <rect width="48" height="48" x="-102.987" y="231.592" fill="#fff" color="#000" overflow="visible" style="isolation:auto;mix-blend-mode:normal"></rect>
  </g>
  <g transform="translate(-523 -1310.362)">
    <path fill="#242730" d="m 549,1312.3622 c -0.55401,0 -1,0.446 -1,1 l 0,1 c 0,0.554 0.44599,1 1,1 l 10.00391,0 0.0156,6.4844 c 0.002,0.8253 0.67075,1.4938 1.49609,1.4961 l 6.48437,0.017 0,28.502 c 0,0.8569 -0.64305,1.5 -1.5,1.5 l -23,0 c -0.85695,0 -1.5,-0.6431 -1.5,-1.5 l 0,-1.5 c 0,-0.554 -0.44599,-1 -1,-1 l -1,0 c -0.55401,0 -1,0.446 -1,1 l 0,1.5 c 0,2.4671 2.03295,4.5 4.5,4.5 l 23,0 c 2.46705,0 4.5,-2.0329 4.5,-4.5 l 0,-30.4863 c -8e-5,-0.3978 -0.15815,-0.7793 -0.43945,-1.0606 l -7.51368,-7.5136 c -0.28126,-0.2814 -0.66274,-0.4394 -1.06054,-0.4395 z m -11,21 c 0,0.554 0.44599,1 1,1 l 1,0 c 0.55401,0 1,-0.446 1,-1 l 0,-10 c 0,-0.554 -0.44599,-1 -1,-1 l -1,0 c -0.55401,0 -1,0.446 -1,1 z" color="#000" font-family="sans-serif" font-weight="400" overflow="visible" style="line-height:normal;text-indent:0;text-align:start;text-decoration-line:none;text-decoration-style:solid;text-decoration-color:#000;text-transform:none;block-progression:tb;isolation:auto;mix-blend-mode:normal"></path>
    <path fill="#11c111" d="m 542.5,308 c -2.46705,0 -4.5,2.0329 -4.5,4.5 l 0,2.5 c 0,0.554 0.44599,1 1,1 l 1,0 c 0.55401,0 1,-0.446 1,-1 l 0,-2.5 c 0,-0.8569 0.64305,-1.5 1.5,-1.5 l 2.5,0 c 0.55401,0 1,-0.446 1,-1 l 0,-1 c 0,-0.554 -0.44599,-1 -1,-1 l -2.5,0 z M 527,332 c -1.10801,0 -2,0.892 -2,2 l 0,7 c 0,1.108 0.89199,2 2,2 l 25,0 c 1.10801,0 2,-0.892 2,-2 l 0,-7 c 0,-1.108 -0.89199,-2 -2,-2 l -25,0 z m 12.39453,2.58789 c 1.52779,0 2.62695,1.21241 2.62695,2.91211 0,1.7092 -1.09916,2.91211 -2.62695,2.91211 -1.5087,0 -2.63476,-1.20291 -2.63476,-2.91211 0,-1.7092 1.08787,-2.91211 2.63476,-2.91211 z m 5.82031,0 c 0.44879,0 0.87955,0.10419 1.33789,0.30469 0.11458,-0.21 0.21962,-0.29492 0.42969,-0.29492 0.29601,0 0.42969,0.12429 0.42969,0.52539 l 0.01,1.21093 c -10e-6,0.401 -0.0968,0.54493 -0.48829,0.54493 -0.28646,0 -0.40042,-0.14346 -0.48632,-0.43946 -0.15278,-0.5443 -0.42968,-0.83007 -1.11719,-0.83007 -0.94532,0 -1.48047,0.64932 -1.48047,1.89062 0,1.2413 0.57246,1.91992 1.52734,1.91992 0.23871,0 0.53539,-0.0591 0.88867,-0.16406 l 0,-0.72461 -0.52539,0 c -0.3915,0 -0.58203,-0.12413 -0.58203,-0.51563 0,-0.39149 0.19053,-0.51562 0.58203,-0.51562 l 1.68165,0 c 0.39148,0 0.59179,0.10476 0.59179,0.50586 0,0.3342 -0.18141,0.51562 -0.51562,0.51562 l -0.0762,0 0,1.10743 0,0.0566 c -1e-5,0.1718 -0.009,0.22822 -0.16211,0.32422 -0.25781,0.1528 -1.0512,0.40234 -2.01563,0.40234 -1.64237,0 -2.74023,-1.19331 -2.74023,-2.91211 0,-1.6328 1.11629,-2.91211 2.71093,-2.91211 z m -13.66406,0.15234 1.99414,0 c 0.38195,0 0.57422,0.14323 0.57422,0.51563 0,0.3819 -0.19227,0.51562 -0.57422,0.51562 l -0.41015,0 0,3.47461 2.12109,0 0,-0.83007 c 0,-0.4011 0.13346,-0.5918 0.50586,-0.5918 0.38195,0 0.50586,0.2003 0.50586,0.5918 l 0,1.43164 c 0,0.3341 -0.0968,0.41992 -0.48828,0.41992 l -4.22852,0 c -0.38195,0 -0.56445,-0.13363 -0.56445,-0.51563 0,-0.3819 0.1825,-0.50586 0.56445,-0.50586 l 0.41016,0 0,-3.47461 -0.41016,0 c -0.38195,0 -0.56445,-0.13372 -0.56445,-0.51562 0,-0.3724 0.1825,-0.51563 0.56445,-0.51563 z m 7.84375,0.92579 c -0.783,0 -1.28906,0.64998 -1.28906,1.83398 0,1.1841 0.52516,1.8418 1.28906,1.8418 0.77344,0 1.28906,-0.6482 1.28906,-1.8418 0,-1.1936 -0.51562,-1.83398 -1.28906,-1.83398 z" color="#000" font-family="sans-serif" font-weight="400" overflow="visible" style="line-height:normal;text-indent:0;text-align:start;text-decoration-line:none;text-decoration-style:solid;text-decoration-color:#000;text-transform:none;block-progression:tb;isolation:auto;mix-blend-mode:normal" transform="translate(0 1004.362)"></path>
  </g>
</svg>
